PathFileType	4	(X/Y/Z)	9_coords_data.trc
DataRate	CameraRate	NumFrames	NumMarkers	Units	OrigDataRate	OrigDataStartFrame	OrigNumFrames
30.0	30.0	6	21	m	30.0	11	50
Frame#	Time	THUMB_TIP	THUMB_IP	THUMB_MCP	THUMB_CMC	INDEX_TIP	INDEX_DIP	INDEX_PIP	INDEX_MCP	MIDDLE_TIP	MIDDLE_DIP	MIDDLE_PIP	MIDDLE_MCP	RING_TIP	RING_DIP	RING_PIP	RING_MCP	PINKY_TIP	PINKY_DIP	PINKY_PIP	PINKY_MCP	WRIST
X1	Y1	Z1	X2	Y2	Z2	X3	Y3	Z3	X4	Y4	Z4	X5	Y5	Z5	X6	Y6	Z6	X7	Y7	Z7	X8	Y8	Z8	X9	Y9	Z9	X10	Y10	Z10	X11	Y11	Z11	X12	Y12	Z12	X13	Y13	Z13	X14	Y14	Z14	X15	Y15	Z15	X16	Y16	Z16	X17	Y17	Z17	X18	Y18	Z18	X19	Y19	Z19	X20	Y20	Z20	X21	Y21	Z21
9	0.33333333333333187	0.49860210646086944	-0.007797044001073616	-0.16720380118470146	0.497439862626971	-0.010754422238015149	-0.14444631663051066	0.48620711476287065	-0.021399506366383214	-0.11744025139839076	0.48122151142260544	-0.025676279804013546	-0.07331834110093516	0.5333938934048746	-0.01819947939366573	-0.10309123667680209	0.5383220353306856	-0.005326717940640768	-0.11483880790376566	0.533789370048891	0.01451453098677813	-0.12959650485970742	0.4919130148512841	0.014424877250815094	-0.12185060713436391	0.5207143607540409	-0.019782366382485317	-0.08797228258450807	0.5337397958550207	-0.008652623690682426	-0.09384313158992608	0.5392149009014183	0.016085235715517898	-0.10824698825159751	0.49638554197420304	0.0284469676664999	-0.10525007015865007	0.5163527298047477	-0.008761745411969168	-0.07903732765441795	0.5311509870928678	0.0010749259644317055	-0.08207895180399649	0.539355383571219	0.023436482246057877	-0.08934728435621853	0.5016776096990385	0.0377535251343839	-0.08616475816297664	0.520494000731131	-0.00830257257951672	-0.06827078319227564	0.5346861527264528	0.0012427579866406413	-0.06758559261698915	0.5386241591219754	0.021855795290496305	-0.06694776996241991	0.5056351808482954	0.03582137671060426	-0.06275571807139979	0.4622830810018609	-0.023011742144276925	-0.051989820119430985
10	0.3666666666666651	0.498732162562436	-0.007785063639131895	-0.1671521499308547	0.4975308042451402	-0.01074977477601291	-0.14439765090168866	0.48625827965401064	-0.021410891058441628	-0.11741449339640564	0.48123345813095925	-0.02572905552504756	-0.07330106432655403	0.5334231219097989	-0.018237725921963488	-0.10309867186124666	0.5383289070009065	-0.005357771221768726	-0.11484771605900157	0.5337829924729236	0.01449298362440321	-0.12958854460225033	0.49190445755029627	0.01442490635752569	-0.12185422031243553	0.5207003544590811	-0.019788221252427185	-0.08794169611164182	0.5337158951521599	-0.008662729406495484	-0.09384246992978784	0.5391967537570455	0.01607320876060314	-0.10824743789041591	0.49637517213030113	0.02846024609259823	-0.10524387764966192	0.5163409557421815	-0.008792494549098695	-0.07899101191171909	0.5311277885354133	0.0010531733816868671	-0.08205897523316019	0.5393388499379506	0.023417681245545552	-0.0893106810773856	0.5016749452180278	0.03777248620421847	-0.08613409645753878	0.5204536427720432	-0.008280255924341229	-0.0682366247585936	0.5346715937444817	0.001227926666322099	-0.06757004095445451	0.538607833399753	0.021839965635170766	-0.06689041905741311	0.5056311211498867	0.03583470198865624	-0.06269908817260472	0.46228308100186094	-0.023011742144276925	-0.051989820119430985
11	0.39999999999999825	0.49886161296898557	-0.007727775213426269	-0.16711433813622378	0.49761871917307715	-0.01069122908332576	-0.14436190626239842	0.4863027529457124	-0.02135951898271493	-0.1173997754311058	0.48124573802891213	-0.02570715725937167	-0.07329292061752135	0.5333246919724125	-0.018273688323669712	-0.10307127108138092	0.5382564191797499	-0.005387167609214871	-0.11480224080380097	0.5337592409915402	0.014469374011988112	-0.12955022290946294	0.49187441917657804	0.01445703397808451	-0.12184972661036397	0.5205853513148316	-0.019820807072983282	-0.0879131078339267	0.53362161847421	-0.008706975050894683	-0.09379005230653392	0.5391554669410936	0.016015119672965317	-0.10819852563336707	0.49635733346126276	0.028490399532131394	-0.10522613870060371	0.5162619569794267	-0.008843290279812899	-0.07891886410430249	0.5310393693831639	0.0010042539042355303	-0.08202594572426136	0.5392894923264275	0.0233549448928142	-0.08927591556930892	0.5016575680328076	0.03779615815934667	-0.08611198330868941	0.5203427978476486	-0.00824339188036971	-0.068271857214528	0.5346161834127736	0.001179683154316713	-0.06758184170749493	0.53856528974073	0.02178728225924742	-0.06684465968047837	0.5056171934331466	0.03585174977022798	-0.06266169968320523	0.46228308100186083	-0.023011742144276925	-0.051989820119430985
12	0.43333333333333146	0.4990803561884663	-0.00769775606678913	-0.16706504553876322	0.4977844452438453	-0.01066017974630229	-0.14431543761320387	0.4864081053814386	-0.021326509116519454	-0.11737794869717721	0.481256258593661	-0.02569924300441906	-0.07328455153818203	0.532998156091942	-0.018372808444786504	-0.10295112421736119	0.5380768340931477	-0.005537453348661736	-0.11467548728391874	0.5337747522437354	0.014336620257512922	-0.12945801491140208	0.49187393560440384	0.01446419336260496	-0.12184609110332478	0.5201887159444598	-0.019785049059908855	-0.08781219619247027	0.5333757335297935	-0.008831185633813798	-0.09365303887538468	0.5391082298682655	0.015825727719274263	-0.10809549917921546	0.49636015768708036	0.028494048554992824	-0.1052208004131725	0.5159124353242907	-0.008748115183931815	-0.07876167087617947	0.5308198814588261	0.000882542366150485	-0.08192686990609421	0.5392237381135484	0.023176445398176093	-0.08917511520585608	0.5016565854193455	0.03780407185406354	-0.08609901105978579	0.5200304294060597	-0.008191324277318168	-0.06821410981693343	0.5344031408966117	0.0010768120292519168	-0.06748829040950954	0.5384978247400959	0.021656940158427118	-0.06677842464146455	0.505606799107005	0.03586489001658444	-0.06263137211811198	0.4622830810018609	-0.023011742144276925	-0.051989820119430985
13	0.4666666666666647	0.49921158535656285	-0.007653006556165076	-0.16699217923970378	0.49787782491750465	-0.010609428537929011	-0.14424397816452084	0.4864588746311407	-0.02127740808346379	-0.11732517828834499	0.4813072446225818	-0.025709639941247642	-0.0732376967429702	0.5323516639010076	-0.018491946453436103	-0.10277260145621181	0.537754929113534	-0.005763482793183061	-0.11446836726665433	0.5337760842568577	0.014124749238680234	-0.1293222170455256	0.49185212103870773	0.014481148854113446	-0.12184623006069661	0.5195814634870015	-0.019688096142646883	-0.0877125560474028	0.5329696374245715	-0.008940101708919568	-0.0934777459202466	0.5390279271119883	0.015610727888020426	-0.10796786124640423	0.4963371470562675	0.028500473690451833	-0.10522930827398069	0.5153736486519649	-0.008594434133814222	-0.07856918177002714	0.5304088181223476	0.0008250541232626141	-0.08176557348126379	0.5391117637613807	0.022985626058631636	-0.08906952910143084	0.5016208225417952	0.037828539884581014	-0.08609663999737294	0.5195231138523915	-0.00801989439522477	-0.06802052736372766	0.5340597649398344	0.0009955640205840943	-0.06738233874367705	0.5383968073952246	0.02152790190852827	-0.06673027847388557	0.505572262709147	0.035895045574983686	-0.06260500272320813	0.4622830810018609	-0.023011742144276925	-0.051989820119430985
14	0.4999999999999978	0.4991895429807649	-0.007591935983424003	-0.16693927787149132	0.4978393075704672	-0.010537680878086153	-0.14419066359825805	0.4864045172623018	-0.021223609724979164	-0.11728571061024062	0.48136333794847136	-0.025694044209903955	-0.07318931929936567	0.531639086137312	-0.018588349302672613	-0.10250589708584212	0.5373753195146908	-0.0060019606725101315	-0.11419685290180359	0.5337359959625476	0.01387541018308358	-0.12915196189344957	0.49178183437633544	0.014500714832927808	-0.12186543914985737	0.5188263477050784	-0.019587092016875696	-0.0875440786025875	0.5324358735108621	-0.009088545637133683	-0.09325033229955138	0.5389005079490303	0.015330030948385809	-0.10778825406017345	0.49628127816408013	0.02849796899843149	-0.10526742462370275	0.5145986280374006	-0.008402293946735528	-0.07840346435725809	0.5297996312167881	0.0007491201231764055	-0.0815942515424638	0.5389227506812927	0.022723036441085753	-0.08894922753765877	0.5015372025107516	0.03786010789041172	-0.08613663266349769	0.5189833284171574	-0.007906978150939659	-0.06786252180081387	0.5336427896955462	0.0009092707057825056	-0.06725100636866033	0.5382549451667942	0.021385706058918208	-0.06674540164371412	0.5055053272788685	0.03593418566142148	-0.06266034100151918	0.4622830810018609	-0.023011742144276925	-0.051989820119430985
